<svg width="60" height="61" viewBox="0 0 60 61" fill="none" xmlns="http://www.w3.org/2000/svg">
<g clip-path="url(#clip0_476_641)">
<path d="M58.8824 5.94364C59.4634 5.94364 59.9344 5.47271 59.9344 4.89168V1.28491C59.9344 0.703877 59.4634 0.23291 58.8824 0.23291H1.11767C0.536674 0.23291 0.0657072 0.703844 0.0657072 1.28491V4.89168C0.0657072 5.47271 0.536674 5.94364 1.11771 5.94364H4.75264V36.7515H1.11767C0.53664 36.7515 0.0656738 37.2224 0.0656738 37.8035V41.4103C0.0656738 41.9913 0.53664 42.4622 1.11767 42.4622H27.3256L10.7366 58.423C10.3179 58.8257 10.3051 59.4917 10.708 59.9104C10.9145 60.125 11.1901 60.233 11.4662 60.233C11.7286 60.233 11.9914 60.1354 12.1954 59.939L27.947 44.7839V59.181C27.947 59.762 28.418 60.233 28.999 60.233C29.5801 60.233 30.051 59.762 30.051 59.181V44.7839L45.8026 59.939C46.0068 60.1354 46.2695 60.233 46.5319 60.233C46.8079 60.233 47.0836 60.125 47.29 59.9104C47.6929 59.4917 47.6801 58.8257 47.2614 58.423L30.6724 42.4622H58.8825C59.4635 42.4622 59.9345 41.9913 59.9345 41.4103V37.8035C59.9345 37.2224 59.4635 36.7515 58.8825 36.7515H55.2475V5.94364H58.8824ZM2.16964 2.33684H57.8304V3.83968H54.1955H5.80461H2.16964V2.33684ZM57.8304 40.3583H2.16964V38.8554H5.80461H54.1955H57.8305L57.8304 40.3583ZM53.1435 36.7515H6.85657V5.94364H53.1435L53.1435 36.7515Z" fill="white"/>
<path d="M16.7414 28.6579C17.0106 28.6579 17.2799 28.5552 17.4852 28.3499L23.2025 22.6328L29.7931 29.2234C29.9986 29.4287 30.2679 29.5314 30.537 29.5314C30.8062 29.5314 31.0755 29.4287 31.2809 29.2234L40.2777 20.2266L40.2779 26.2603C40.2779 26.8413 40.7488 27.3123 41.3299 27.3123C41.9109 27.3123 42.3819 26.8413 42.3819 26.2603L42.3816 17.584C42.3816 17.293 42.2634 17.0295 42.0724 16.8392C41.882 16.6483 41.6186 16.53 41.3276 16.53L32.6514 16.5297C32.0705 16.5297 31.5994 17.0006 31.5994 17.5817C31.5994 18.1627 32.0704 18.6336 32.6514 18.6336L38.8947 18.6339L30.537 26.9916L23.9465 20.4011C23.5356 19.9904 22.8696 19.9904 22.4586 20.4011C22.4582 20.4015 22.4578 20.4021 22.4573 20.4025L15.9977 26.862C15.5867 27.273 15.5867 27.939 15.9975 28.3497C16.203 28.5552 16.4721 28.6579 16.7414 28.6579Z" fill="white"/>
</g>
<defs>
<clipPath id="clip0_476_641">
<rect width="60" height="60" fill="white" transform="translate(0 0.23291)"/>
</clipPath>
</defs>
</svg>
