<svg width="60" height="61" viewBox="0 0 60 61" fill="none" xmlns="http://www.w3.org/2000/svg">
<path d="M14.5152 25.83H5.9152C5.38833 25.83 4.96118 26.257 4.96118 26.784C4.96118 27.311 5.38833 27.738 5.9152 27.738H14.5152C15.0422 27.738 15.4692 27.311 15.4692 26.784C15.4692 26.257 15.0422 25.83 14.5152 25.83Z" fill="white"/>
<path d="M15.3518 22.6732H6.75163C6.22464 22.6732 5.79761 23.1002 5.79761 23.6272C5.79761 24.1542 6.22464 24.5813 6.75163 24.5813H15.3517C15.8785 24.5813 16.3057 24.1542 16.3057 23.6272C16.3058 23.1002 15.8785 22.6732 15.3518 22.6732Z" fill="white"/>
<path d="M15.3518 28.9871H6.75163C6.22464 28.9871 5.79761 29.4141 5.79761 29.9411C5.79761 30.4681 6.22464 30.8951 6.75163 30.8951H15.3517C15.8785 30.8951 16.3057 30.4681 16.3057 29.9411C16.3058 29.4141 15.8785 28.9871 15.3518 28.9871Z" fill="white"/>
<path d="M56.3469 12.7429C53.9043 8.83862 50.6096 6.68823 47.0699 6.68823C44.9454 6.68823 42.9094 7.46366 41.0927 8.92721C34.5249 11.1804 24.1421 13.9594 11.6704 14.5492C5.12636 14.8585 0 20.2327 0 26.7842C0 33.0794 4.73343 38.2868 10.9099 38.9591V48.2671C10.9099 51.3058 13.382 53.7777 16.4205 53.7777C19.4591 53.7777 21.9311 51.3056 21.9311 48.2671V46.8212C24.8793 46.421 27.1836 43.9674 27.3489 40.9519C32.8656 42.0491 37.5384 43.4218 41.0929 44.6412C42.9095 46.1046 44.9455 46.8801 47.0699 46.8801C50.6096 46.8801 53.9043 44.7299 56.3469 40.8255C58.7026 37.0604 59.9999 32.0737 59.9999 26.7841C59.9999 21.4947 58.7026 16.5081 56.3469 12.7429ZM20.0229 48.2671C20.0229 50.2535 18.4067 51.8695 16.4204 51.8695C14.4341 51.8695 12.8179 50.2535 12.8179 48.2671V39.0809C13.1012 39.0975 13.385 39.1156 13.669 39.1347C13.6864 39.1359 13.7041 39.1368 13.7216 39.1381C14.0095 39.1575 14.2977 39.1784 14.5862 39.2003C14.6012 39.2015 14.6162 39.2027 14.6312 39.2037C16.4238 39.3409 18.2271 39.5259 20.0226 39.7567V45.926L20.0227 48.2671H20.0229ZM25.4507 40.6046C25.4507 42.7227 23.9349 44.4937 21.931 44.8895V40.0211C23.106 40.1937 24.284 40.3867 25.4507 40.5973V40.6046ZM13.095 37.1861C13.0733 37.1848 13.0517 37.1834 13.0301 37.1821C12.609 37.157 12.1865 37.1335 11.7607 37.1134C6.236 36.852 1.90816 32.315 1.90816 26.7841C1.90816 21.2532 6.236 16.7162 11.7607 16.4551C22.538 15.9454 31.7845 13.8299 38.423 11.7989C37.8917 12.5394 37.4039 13.3453 36.9623 14.2053C36.9589 14.2119 36.9555 14.2186 36.9522 14.2251C34.2312 19.5665 33.5783 25.6735 34.5015 31.5543C34.9198 34.2186 35.7176 36.9333 36.9501 39.3397C36.9543 39.348 36.9585 39.3563 36.9626 39.3645C37.4042 40.2239 37.8917 41.0294 38.4228 41.7695C32.0604 39.8229 23.301 37.7996 13.095 37.1861ZM54.7294 39.8136C52.6483 43.1399 49.928 44.972 47.0699 44.972C45.3808 44.972 43.7399 44.3318 42.2506 43.1218C42.2301 43.1015 42.2087 43.082 42.1862 43.0635C41.832 42.7708 41.4903 42.4509 41.1619 42.1057C41.1605 42.1043 41.1592 42.1029 41.1578 42.1014C41.0705 42.0097 40.985 41.9148 40.8995 41.8195C40.3749 41.2281 39.8765 40.5586 39.4103 39.8134C34.7624 32.3845 34.7567 21.1934 39.4103 13.7547C39.8745 13.0127 40.3708 12.3457 40.893 11.7561C41.3027 11.2979 41.7338 10.8787 42.1861 10.505C42.2087 10.4863 42.2303 10.4666 42.2508 10.4463C43.74 9.23647 45.3807 8.59628 47.0698 8.59628C49.9278 8.59628 52.648 10.4283 54.7293 13.7547C56.8976 17.2204 58.0917 21.8477 58.0917 26.7841C58.0917 31.7206 56.8976 36.3479 54.7294 39.8136Z" fill="white"/>
<path d="M51.9706 16.6017C50.5712 13.9785 48.7391 12.4127 47.07 12.4127C45.4007 12.4127 43.5686 13.9787 42.1692 16.6016C41.3818 18.0773 40.7839 19.7877 40.3937 21.6307C40.3848 21.6594 40.377 21.6887 40.3708 21.7187C39.6827 25.0387 39.684 28.5291 40.3708 31.8499C40.377 31.8799 40.3849 31.9092 40.3939 31.938C40.784 33.7809 41.3818 35.4912 42.1693 36.967C43.5688 39.5899 45.4009 41.1558 47.0701 41.1558C48.7393 41.1558 50.5713 39.5899 51.9707 36.9669C53.457 34.1813 54.2756 30.5651 54.2756 26.7842C54.2753 23.0035 53.4568 19.3874 51.9706 16.6017ZM42.0955 30.7016C41.9462 29.8237 41.8495 28.9197 41.8037 27.9987C41.7983 27.8886 41.7931 27.7785 41.7892 27.6669C41.7862 27.5851 41.7838 27.5032 41.7817 27.421C41.7765 27.2132 41.7726 27.0043 41.7725 26.7914C41.7725 26.7889 41.7725 26.7867 41.7725 26.7842C41.7725 26.7818 41.7725 26.7795 41.7725 26.7771C41.7725 26.5641 41.7765 26.3551 41.7817 26.1475C41.7838 26.0654 41.7862 25.9835 41.7892 25.9016C41.793 25.79 41.7983 25.6801 41.8037 25.57C41.8495 24.6491 41.9462 23.7448 42.0955 22.867H44.5741C43.5459 24.9015 43.5307 27.5301 44.1802 29.6799C44.2855 30.0281 44.4102 30.3705 44.5541 30.7046C44.32 30.6975 42.1067 30.7688 42.0955 30.7016ZM47.07 39.2475C45.956 39.2475 43.6759 36.9527 42.504 32.6096H47.0697H47.0698C48.9601 32.6096 50.3854 30.1051 50.3854 26.784C50.3854 23.4629 48.9601 20.9584 47.0698 20.9584C47.0688 20.9584 47.0679 20.9585 47.0668 20.9585H42.5039C43.6757 16.6154 45.9559 14.3205 47.0698 14.3205C48.6072 14.3205 52.3673 18.688 52.3673 26.7839C52.3672 34.8801 48.6073 39.2475 47.07 39.2475ZM45.6624 26.7841C45.6624 24.0457 46.7305 22.8669 47.0697 22.8668C47.07 22.8668 47.0702 22.8668 47.0707 22.8668C47.4107 22.8684 48.4774 24.0473 48.4774 26.7841C48.4774 29.5229 47.4092 30.7016 47.07 30.7016C46.7306 30.7014 45.6624 29.5226 45.6624 26.7841Z" fill="white"/>
</svg>
