<svg width="58" height="58" viewBox="0 0 58 58" fill="none" xmlns="http://www.w3.org/2000/svg">
<path d="M0 28.3077V28.2277C0.727362 18.876 4.12603 11.8615 10.0303 7.42683C15.8544 2.91218 22.1651 0.734831 29.0401 0.734831C36.2387 0.654858 42.9532 3.07213 48.9403 7.90925C55.0077 12.6664 58 19.7608 58 28.9501V29.5151C58 38.7869 55.0077 45.7188 48.9403 50.4759C42.8729 55.3131 36.1584 57.7329 28.9599 57.7329H28.6363C21.5982 57.6529 15.1271 55.2331 9.1425 50.396C3.15535 45.6388 0.0828313 38.3019 0.00258848 28.3051L0 28.3077ZM27.2593 15.6512V2.91218H25.3179C24.9141 3.39718 24.5905 3.95958 24.267 4.44458C23.9434 4.92958 23.6199 5.41201 23.2963 5.97698C22.9727 6.46198 22.5689 7.10693 22.3256 7.58936C22.0021 8.07436 21.7587 8.55678 21.5154 9.12176C21.0288 9.92923 20.625 10.7341 20.3014 11.4591C19.8976 12.184 19.5741 12.9115 19.3307 13.5564C19.8174 13.8789 20.3817 14.2814 21.0288 14.5239C21.7561 14.7664 22.4861 15.0089 23.2135 15.1688C24.0237 15.3313 24.751 15.4113 25.3981 15.4913C26.1255 15.5713 26.7726 15.6538 27.2593 15.6538V15.6512ZM30.6579 2.91476V15.5713C31.0617 15.5713 31.5484 15.6512 32.0324 15.5713C32.519 15.5713 33.0833 15.4913 33.57 15.4087C34.4604 15.2462 35.5113 15.0063 36.3215 14.7638C37.2119 14.4413 38.0195 14.0389 38.5864 13.5539C37.6157 11.2166 36.5648 9.36168 35.5113 7.58678C34.4578 5.81188 33.2464 4.28205 31.9522 2.99216V2.91218H30.6579V2.91476ZM21.9218 3.63968V3.55971C21.3549 3.80221 20.7881 4.20466 20.1409 4.44716C19.5741 4.68966 18.8467 5.01214 18.2798 5.33461C17.1461 5.89959 16.0149 6.54454 14.8812 7.26946C13.8302 7.99439 12.7767 8.80186 11.8889 9.60676C12.2124 9.92923 12.6162 10.2517 12.9398 10.4942C13.2634 10.7367 13.6672 11.0592 14.0735 11.3817C14.3971 11.5442 14.8009 11.7841 15.2073 12.1066C15.6111 12.3491 16.0977 12.6716 16.5818 12.994C17.2289 11.5416 17.876 10.0118 18.6862 8.63933C19.4964 7.18691 20.3843 5.81704 21.2747 4.60711C21.3549 4.44458 21.4378 4.28464 21.5983 4.12211C21.6785 4.04213 21.7613 3.80221 21.9218 3.63968ZM46.6728 9.60418V9.52421C44.6512 7.99181 42.8704 6.70191 41.0921 5.89701C39.3138 5.09211 37.5329 4.28463 35.9151 3.63968C37.2094 4.92958 38.3431 6.54196 39.0705 8.07436C39.8807 9.68673 40.6883 11.3791 41.3354 12.9915C41.6589 12.8289 42.0627 12.669 42.5494 12.3465C42.9532 12.104 43.5201 11.8615 44.0067 11.6216C44.4933 11.2991 44.8971 10.9766 45.3812 10.6542C45.8678 10.2517 46.3519 9.92923 46.6754 9.60676L46.6728 9.60418ZM45.2983 27.5828H54.6013C54.6013 24.6005 53.9542 21.7783 52.7402 18.876C51.6065 16.0537 49.9887 13.7164 47.9671 11.7016V11.6216C47.5633 12.2665 46.9964 12.8315 46.4295 13.234C45.7824 13.6364 45.2155 13.9589 44.5684 14.2814C44.1646 14.5239 43.7582 14.8463 43.3544 15.0063C42.9506 15.2488 42.3837 15.4087 41.9799 15.6512C42.3035 16.2962 42.627 17.0211 42.9506 17.6661C43.1939 18.391 43.5977 19.1985 43.7608 19.9234C44.2474 21.2133 44.571 22.5831 44.8945 23.9556C45.1379 25.1655 45.2983 26.4554 45.2983 27.5828ZM16.0175 15.6512V15.5713C15.3704 15.2488 14.643 15.0063 14.0761 14.6838C13.5093 14.2814 12.9424 13.8763 12.4583 13.5539C11.9717 13.3114 11.4877 12.9889 11.0839 12.6664C10.6801 12.3439 10.3565 12.0215 10.0329 11.699C7.9285 13.7138 6.39354 15.9711 5.42286 18.6335C4.37194 21.2932 3.64199 24.2781 3.31843 27.5028H13.2685C13.2685 25.2455 13.5921 23.0682 14.159 20.8908C14.6456 18.6335 15.3704 16.9411 16.0175 15.6512ZM27.2593 27.5028V18.231C26.6121 18.311 25.8019 18.311 25.0746 18.231C24.2644 18.1511 23.4568 17.9086 22.7294 17.6661C22.0823 17.5035 21.2721 17.3436 20.625 17.1011C19.8976 16.9385 19.1677 16.6161 18.6034 16.2936C18.1167 17.1011 17.7129 18.0685 17.3894 19.1159C16.9856 20.0833 16.7423 21.1307 16.499 22.0981C16.3359 23.0656 16.2556 24.113 16.1754 25.0004C16.0951 25.8879 16.0123 26.7753 16.0123 27.5002H27.2567L27.2593 27.5028ZM30.6579 18.3936V27.5028H42.6296C42.6296 27.0178 42.6296 26.4554 42.5494 25.8105C42.3863 25.2455 42.3061 24.5206 42.2258 23.8756C41.9825 22.9082 41.7392 21.8608 41.4156 20.8934C41.0921 20.0059 40.7685 19.1185 40.3647 18.3936C40.2016 17.9911 40.0411 17.5061 39.8781 17.1836C39.6348 16.7812 39.3914 16.5387 39.231 16.2962C38.3405 16.9411 37.1265 17.3436 35.6718 17.6661C34.2973 17.9885 32.6795 18.311 31.2222 18.391H30.6553L30.6579 18.3936ZM13.2659 30.1626H3.31584C3.31584 31.5325 3.55916 33.0649 3.96296 34.9197C4.36676 36.8546 5.17695 38.6295 6.06739 40.5643C6.47119 41.5318 6.95783 42.4992 7.44187 43.4666C8.00875 44.3541 8.65587 45.3215 9.30299 46.2089C9.78962 45.8865 10.2737 45.644 10.6775 45.4015C11.1641 45.159 11.7284 44.8365 12.215 44.594C12.7819 44.3515 13.3488 44.109 13.9959 43.7865C14.5628 43.544 15.2901 43.2215 16.0175 42.8991C15.3704 40.8842 14.643 38.9494 14.1564 36.772C13.5895 34.6747 13.2659 32.5799 13.2659 30.2426V30.1626ZM27.2593 39.5943V30.1626H16.0149C16.0149 30.8075 16.0951 31.775 16.2582 32.7424C16.3385 33.7098 16.5818 34.7572 16.7449 35.8072C17.0684 36.9371 17.3117 38.0645 17.6353 39.0319C17.9589 39.9994 18.2824 40.8068 18.606 41.5318C20.0633 40.9668 21.518 40.5643 22.4887 40.3218C23.5396 39.9994 24.5103 39.7569 25.481 39.6769H26.3714C26.695 39.5969 27.0185 39.5969 27.2618 39.5969L27.2593 39.5943ZM30.6579 30.1626V39.5144C31.2248 39.5943 31.8719 39.6769 32.519 39.7569C33.2464 39.8368 34.1368 39.9994 34.8642 40.1593L36.0782 40.4018C36.482 40.5643 36.9686 40.6443 37.3724 40.7243C37.8591 40.8868 38.3431 40.9668 38.8297 41.1267C39.2335 41.2893 39.6399 41.3692 39.9635 41.5292C41.0144 38.8694 41.6615 36.6921 42.0679 34.8372C42.4717 33.0623 42.6348 31.5325 42.6348 30.2426V30.1626H30.6631H30.6579ZM54.6013 30.2426V30.1626H45.2983V30.6476C45.2181 32.18 44.9748 33.9523 44.6512 35.8072C44.3277 37.5821 43.6003 39.6769 42.6296 42.2567C43.9239 42.9016 45.1379 43.5466 46.1085 44.1915C47.0792 44.8365 47.9697 45.5614 48.6168 46.2064C49.9913 44.8365 51.2052 42.9816 52.2562 40.5618C53.3071 38.2245 54.037 35.8046 54.4408 33.2248C54.5211 32.7398 54.5211 32.2574 54.6039 31.7724V30.24L54.6013 30.2426ZM27.2593 54.7507V42.1741C25.2376 42.4966 23.537 42.8991 22.2428 43.2215C20.9485 43.544 19.9779 43.8665 19.3307 44.189C19.8174 45.3989 20.3014 46.4463 20.7881 47.4137C21.2747 48.3012 21.839 49.2686 22.3256 50.0735C22.4887 50.396 22.8122 50.7184 23.053 51.1209C23.2963 51.4434 23.4568 51.8458 23.7001 52.1683C23.9434 52.5707 24.1867 53.0557 24.4275 53.5382C24.751 53.9406 24.9943 54.4256 25.3179 54.7481L27.2593 54.7507ZM30.6579 54.7507H32.519C33.2464 54.1857 33.9763 53.3808 34.5406 52.4933C35.1878 51.6059 35.9151 50.5585 36.4017 49.671C36.9686 48.6236 37.5355 47.6562 38.0195 46.6888C38.5036 45.7214 38.91 44.8339 39.2335 44.189C38.3431 43.8665 37.1291 43.544 35.9177 43.2215C34.7063 42.8991 33.0057 42.5766 30.6605 42.2541V54.7507H30.6579ZM46.6728 48.1412V48.0612C46.5098 47.8187 46.1862 47.4963 45.9455 47.2538C45.7047 47.0113 45.2983 46.6888 44.8945 46.4463C44.571 46.2038 44.1672 45.9613 43.6805 45.7214C43.1939 45.4814 42.5468 45.1564 41.9825 44.8339C41.6589 45.4789 41.0921 46.6088 40.2845 48.1386C39.5571 49.671 38.2629 51.5259 36.6451 53.5407C38.6667 53.2183 40.4475 52.4933 42.0653 51.5259C43.8462 50.6385 45.3812 49.4285 46.6754 48.1386L46.6728 48.1412ZM16.5818 45.5614V45.4814C16.0149 45.8039 15.1245 46.2064 14.2366 46.6114C13.2659 47.0138 12.215 47.4988 11.2443 48.1438C11.8112 48.6288 12.3781 49.1112 12.8621 49.4337C13.3488 49.8361 13.9131 50.1586 14.3997 50.4811C15.2901 51.0461 16.3411 51.611 17.392 52.0935C18.4429 52.5759 19.7371 53.0609 21.3549 53.5459C20.7881 52.9009 20.3843 52.0935 19.9805 51.4485C19.5767 50.8036 19.09 50.1586 18.6862 49.5137C18.2824 48.8687 17.9589 48.1438 17.6353 47.4988C17.2315 46.8539 16.9079 46.2089 16.5844 45.564L16.5818 45.5614Z" fill="white"/>
</svg>
