<svg width="60" height="61" viewBox="0 0 60 61" fill="none" xmlns="http://www.w3.org/2000/svg">
<path d="M21.25 35.0654H13.9075C12.2499 35.0654 10.6602 34.4069 9.48805 33.2348C8.31595 32.0627 7.65747 30.473 7.65747 28.8154V14.1404C7.65747 12.4828 8.31595 10.8931 9.48805 9.72096C10.6602 8.54886 12.2499 7.89038 13.9075 7.89038H21.25C22.9076 7.89038 24.4973 8.54886 25.6694 9.72096C26.8415 10.8931 27.5 12.4828 27.5 14.1404V28.8154C27.5 30.473 26.8415 32.0627 25.6694 33.2348C24.4973 34.4069 22.9076 35.0654 21.25 35.0654ZM13.9075 10.3904C12.9129 10.3904 11.9591 10.7855 11.2558 11.4887C10.5526 12.192 10.1575 13.1458 10.1575 14.1404V28.8154C10.1575 29.8099 10.5526 30.7638 11.2558 31.467C11.9591 32.1703 12.9129 32.5654 13.9075 32.5654H21.25C22.2445 32.5654 23.1984 32.1703 23.9016 31.467C24.6049 30.7638 25 29.8099 25 28.8154V14.1404C25 13.1458 24.6049 12.192 23.9016 11.4887C23.1984 10.7855 22.2445 10.3904 21.25 10.3904H13.9075Z" fill="white"/>
<path d="M21.2499 52.5704H13.9099C12.2523 52.5704 10.6626 51.912 9.49049 50.7398C8.31839 49.5677 7.65991 47.978 7.65991 46.3204C7.65991 44.6628 8.31839 43.0731 9.49049 41.901C10.6626 40.7289 12.2523 40.0704 13.9099 40.0704H21.2499C22.9075 40.0704 24.4972 40.7289 25.6693 41.901C26.8414 43.0731 27.4999 44.6628 27.4999 46.3204C27.4999 47.978 26.8414 49.5677 25.6693 50.7398C24.4972 51.912 22.9075 52.5704 21.2499 52.5704ZM13.9149 42.5704C12.9204 42.5704 11.9665 42.9655 11.2633 43.6688C10.56 44.372 10.1649 45.3259 10.1649 46.3204C10.1649 47.315 10.56 48.2688 11.2633 48.9721C11.9665 49.6753 12.9204 50.0704 13.9149 50.0704H21.2499C22.2445 50.0704 23.1983 49.6753 23.9016 48.9721C24.6048 48.2688 24.9999 47.315 24.9999 46.3204C24.9999 45.3259 24.6048 44.372 23.9016 43.6688C23.1983 42.9655 22.2445 42.5704 21.2499 42.5704H13.9149Z" fill="white"/>
<path d="M46.09 52.5704H38.75C37.9292 52.5704 37.1165 52.4087 36.3582 52.0946C35.5999 51.7805 34.9109 51.3202 34.3306 50.7398C33.7502 50.1594 33.2898 49.4704 32.9758 48.7122C32.6617 47.9539 32.5 47.1411 32.5 46.3204V31.6454C32.5 29.9878 33.1585 28.3981 34.3306 27.226C35.5027 26.0539 37.0924 25.3954 38.75 25.3954H46.085C46.9058 25.3954 47.7185 25.557 48.4768 25.8711C49.2351 26.1852 49.924 26.6456 50.5044 27.226C51.0848 27.8063 51.5452 28.4953 51.8592 29.2536C52.1733 30.0119 52.335 30.8246 52.335 31.6454V46.3204C52.335 47.9771 51.6772 49.5661 50.5062 50.738C49.3352 51.91 47.7467 52.5691 46.09 52.5704ZM38.75 27.8954C37.7554 27.8954 36.8016 28.2905 36.0983 28.9937C35.3951 29.697 35 30.6508 35 31.6454V46.3204C35 47.3149 35.3951 48.2688 36.0983 48.972C36.8016 49.6753 37.7554 50.0704 38.75 50.0704H46.085C47.0796 50.0704 48.0334 49.6753 48.7366 48.972C49.4399 48.2688 49.835 47.3149 49.835 46.3204V31.6454C49.835 30.6508 49.4399 29.697 48.7366 28.9937C48.0334 28.2905 47.0796 27.8954 46.085 27.8954H38.75Z" fill="white"/>
<path d="M46.09 20.3904H38.75C37.0924 20.3904 35.5027 19.7319 34.3306 18.5598C33.1585 17.3877 32.5 15.798 32.5 14.1404C32.5 12.4828 33.1585 10.8931 34.3306 9.72096C35.5027 8.54886 37.0924 7.89038 38.75 7.89038H46.085C47.7426 7.89038 49.3323 8.54886 50.5044 9.72096C51.6765 10.8931 52.335 12.4828 52.335 14.1404C52.335 15.798 51.6765 17.3877 50.5044 18.5598C49.3323 19.7319 47.7426 20.3904 46.085 20.3904H46.09ZM38.755 10.3904C37.7604 10.3904 36.8066 10.7855 36.1033 11.4887C35.4001 12.192 35.005 13.1458 35.005 14.1404C35.005 15.1349 35.4001 16.0888 36.1033 16.792C36.8066 17.4953 37.7604 17.8904 38.755 17.8904H46.09C47.0846 17.8904 48.0384 17.4953 48.7416 16.792C49.4449 16.0888 49.84 15.1349 49.84 14.1404C49.84 13.1458 49.4449 12.192 48.7416 11.4887C48.0384 10.7855 47.0846 10.3904 46.09 10.3904H38.755Z" fill="white"/>
</svg>
